<svg width="42" height="59" viewBox="0 0 42 59" fill="none" xmlns="http://www.w3.org/2000/svg">
<path d="M28.6829 54.2589H13.3171C13.0354 54.2589 12.8049 54.496 12.8049 54.7857V56.8929C12.8049 58.0584 13.7204 59 14.8537 59H27.1463C28.2796 59 29.1951 58.0584 29.1951 56.8929V54.7857C29.1951 54.496 28.9646 54.2589 28.6829 54.2589ZM21 0C9.40518 0 0 9.6731 0 21.5982C0 29.5922 4.22561 36.5721 10.5 40.3057V47.9375C10.5 49.103 11.4155 50.0446 12.5488 50.0446H29.4512C30.5845 50.0446 31.5 49.103 31.5 47.9375V40.3057C37.7744 36.5721 42 29.5922 42 21.5982C42 9.6731 32.5948 0 21 0ZM29.1887 36.2033L26.8902 37.573V45.3036H15.1098V37.573L12.8113 36.2033C7.77256 33.2073 4.60976 27.6892 4.60976 21.5982C4.60976 12.2873 11.947 4.74107 21 4.74107C30.053 4.74107 37.3902 12.2873 37.3902 21.5982C37.3902 27.6892 34.2274 33.2073 29.1887 36.2033Z" fill="#096D9B"/>
</svg>
