<svg width="33" height="41" viewBox="0 0 33 41" fill="none" xmlns="http://www.w3.org/2000/svg">
<path fill-rule="evenodd" clip-rule="evenodd" d="M6.29134 0.59375C4.80226 0.59375 3.37417 1.18528 2.32123 2.23822C1.26829 3.29116 0.676758 4.71925 0.676758 6.20833V34.7917C0.676758 36.2807 1.26829 37.7088 2.32123 38.7618C3.37417 39.8147 4.80226 40.4063 6.29134 40.4063H26.708C28.1971 40.4063 29.6252 39.8147 30.6781 38.7618C31.7311 37.7088 32.3226 36.2807 32.3226 34.7917V12.268C32.3226 11.4901 32.0694 10.7347 31.5998 10.114L25.4789 2.01271C25.1459 1.57195 24.7152 1.21442 24.2206 0.968208C23.7261 0.722001 23.1812 0.593825 22.6288 0.59375H6.29134ZM3.73926 6.20833C3.73926 4.79958 4.88259 3.65625 6.29134 3.65625H21.0934V12.6335C21.0934 13.4787 21.7794 14.1647 22.6247 14.1647H29.2601V34.7917C29.2601 36.2004 28.1168 37.3438 26.708 37.3438H6.29134C4.88259 37.3438 3.73926 36.2004 3.73926 34.7917V6.20833Z" fill="#096D9B"/>
</svg>
