<svg width="38" height="48" viewBox="0 0 38 48" fill="none" xmlns="http://www.w3.org/2000/svg">
<path fill-rule="evenodd" clip-rule="evenodd" d="M6.91665 0.4375C5.15406 0.4375 3.46367 1.13768 2.21733 2.38402C0.970997 3.63036 0.270813 5.32075 0.270813 7.08333V40.9167C0.270813 42.6793 0.970997 44.3696 2.21733 45.616C3.46367 46.8623 5.15406 47.5625 6.91665 47.5625H31.0833C32.8459 47.5625 34.5363 46.8623 35.7826 45.616C37.029 44.3696 37.7291 42.6793 37.7291 40.9167V14.256C37.7291 13.3353 37.4295 12.4411 36.8736 11.7064L29.6285 2.11708C29.2343 1.59536 28.7244 1.17217 28.1391 0.880736C27.5537 0.589307 26.9087 0.437588 26.2548 0.4375H6.91665ZM3.89581 7.08333C3.89581 5.41583 5.24915 4.0625 6.91665 4.0625H24.4375V14.6886C24.4375 15.6891 25.2495 16.5011 26.25 16.5011H34.1041V40.9167C34.1041 42.5842 32.7508 43.9375 31.0833 43.9375H6.91665C5.24915 43.9375 3.89581 42.5842 3.89581 40.9167V7.08333Z" fill="#096D9B"/>
</svg>
