<svg width="26" height="26" viewBox="0 0 26 26" fill="none" xmlns="http://www.w3.org/2000/svg">
<path d="M12.9458 19.5C13.325 19.5 13.6456 19.3689 13.9078 19.1068C14.17 18.8446 14.3007 18.5243 14.3 18.1458C14.2992 17.7674 14.1685 17.4467 13.9078 17.1838C13.6471 16.9209 13.3264 16.7902 12.9458 16.7917C12.5652 16.7931 12.2449 16.9242 11.9849 17.1849C11.7249 17.4456 11.5938 17.7659 11.5916 18.1458C11.5895 18.5257 11.7205 18.8464 11.9849 19.1078C12.2492 19.3693 12.5695 19.5 12.9458 19.5ZM11.9708 15.3292H13.975C13.975 14.7333 14.0428 14.2639 14.1786 13.9208C14.3144 13.5778 14.6979 13.1083 15.3291 12.5125C15.7986 12.0431 16.1687 11.596 16.4395 11.1713C16.7104 10.7467 16.8458 10.2368 16.8458 9.64167C16.8458 8.63056 16.4757 7.85417 15.7354 7.3125C14.9951 6.77084 14.1194 6.5 13.1083 6.5C12.0791 6.5 11.2442 6.77084 10.6036 7.3125C9.96302 7.85417 9.51596 8.50417 9.26246 9.2625L11.05 9.96667C11.1402 9.64167 11.3435 9.28959 11.6599 8.91042C11.9762 8.53125 12.459 8.34167 13.1083 8.34167C13.6861 8.34167 14.1194 8.49984 14.4083 8.81617C14.6972 9.1325 14.8416 9.47989 14.8416 9.85834C14.8416 10.2194 14.7333 10.5582 14.5166 10.8745C14.3 11.1908 14.0291 11.4841 13.7041 11.7542C12.9097 12.4583 12.4222 12.991 12.2416 13.3521C12.0611 13.7132 11.9708 14.3722 11.9708 15.3292ZM13 23.8333C11.5013 23.8333 10.093 23.5491 8.77496 22.9808C7.45691 22.4124 6.31038 21.6403 5.33538 20.6646C4.36038 19.6889 3.58868 18.5423 3.02029 17.225C2.45191 15.9077 2.16735 14.4993 2.16663 13C2.16591 11.5007 2.45046 10.0923 3.02029 8.775C3.59013 7.45767 4.36182 6.31114 5.33538 5.33542C6.30893 4.3597 7.45546 3.588 8.77496 3.02034C10.0945 2.45267 11.5028 2.16811 13 2.16667C14.4971 2.16523 15.9055 2.44978 17.225 3.02034C18.5445 3.59089 19.691 4.36259 20.6645 5.33542C21.6381 6.30825 22.4102 7.45478 22.9807 8.775C23.5513 10.0952 23.8355 11.5036 23.8333 13C23.8311 14.4964 23.5466 15.9048 22.9796 17.225C22.4127 18.5452 21.641 19.6918 20.6645 20.6646C19.6881 21.6374 18.5416 22.4095 17.225 22.9808C15.9083 23.552 14.5 23.8362 13 23.8333Z" fill="#179415"/>
</svg>
