<svg width="54" height="39" viewBox="0 0 54 39" fill="none" xmlns="http://www.w3.org/2000/svg">
<path d="M50.715 7.445C50.4339 6.39263 49.882 5.4323 49.1141 4.65972C48.3463 3.88714 47.3894 3.32928 46.3387 3.04175C42.48 2 27 2 27 2C27 2 11.52 2 7.66125 3.04175C6.61063 3.32928 5.65371 3.88714 4.88587 4.65972C4.11802 5.4323 3.56606 6.39263 3.285 7.445C2.25 11.333 2.25 19.4375 2.25 19.4375C2.25 19.4375 2.25 27.542 3.285 31.43C3.56572 32.4828 4.11753 33.4436 4.88539 34.2166C5.65326 34.9896 6.61036 35.5478 7.66125 35.8355C11.5222 36.875 27 36.875 27 36.875C27 36.875 42.48 36.875 46.3387 35.8355C47.3896 35.5478 48.3467 34.9896 49.1146 34.2166C49.8825 33.4436 50.4343 32.4828 50.715 31.43C51.75 27.5465 51.75 19.4375 51.75 19.4375C51.75 19.4375 51.75 11.333 50.715 7.445ZM21.9375 26.7972V12.08L34.875 19.4398L21.9375 26.7972Z" stroke="#096D9B" stroke-width="4" stroke-miterlimit="10" stroke-linejoin="round"/>
</svg>
