<svg width="56" height="58" viewBox="0 0 56 58" fill="none" xmlns="http://www.w3.org/2000/svg">
<path d="M22.0942 57.5L20.9479 48.342C19.9366 48.0359 18.8441 47.5567 17.6704 46.9043C16.4945 46.2499 15.4949 45.549 14.6715 44.8017L6.22285 48.3958L0.317017 38.1042L7.61935 32.5973C7.52435 32.0273 7.4473 31.4383 7.38818 30.8303C7.32485 30.2223 7.29318 29.6323 7.29318 29.0602C7.29318 28.5282 7.32485 27.9687 7.38818 27.3818C7.4473 26.7949 7.52435 26.1342 7.61935 25.3995L0.317017 19.899L6.22285 9.72767L14.6082 13.2617C15.554 12.4742 16.5779 11.7638 17.6799 11.1305C18.7776 10.4972 19.8469 10.0074 20.8877 9.66117L22.091 0.5H33.909L35.0522 9.72133C36.2661 10.1478 37.3385 10.6365 38.2695 11.1875C39.2005 11.7385 40.16 12.4288 41.148 13.2585L49.7772 9.72767L55.683 19.8958L48.14 25.5832C48.3131 26.2376 48.4102 26.8382 48.4314 27.385C48.4525 27.9318 48.463 28.4701 48.463 29C48.463 29.4919 48.4419 30.0102 48.3997 30.5548C48.3596 31.1016 48.2667 31.7624 48.121 32.5372L55.5437 38.1042L49.6379 48.3958L41.148 44.7415C40.1621 45.5712 39.1699 46.2816 38.1714 46.8727C37.1728 47.4638 36.1331 47.9335 35.0522 48.2818L33.909 57.5H22.0942ZM24.8334 54.3333H31.0274L32.1958 45.758C33.7918 45.3358 35.2274 44.7563 36.5025 44.0195C37.7819 43.2827 39.0823 42.2736 40.4039 40.9922L48.3047 44.3583L51.4524 38.975L44.5205 33.769C44.7844 32.8676 44.9596 32.0379 45.0462 31.28C45.1306 30.5242 45.1729 29.7642 45.1729 29C45.1729 28.1978 45.1306 27.4378 45.0462 26.72C44.9617 26.0022 44.7865 25.2137 44.5205 24.3545L51.5727 19.025L48.425 13.6417L40.3437 17.03C39.3852 15.9766 38.126 14.9896 36.5659 14.0692C35.0036 13.1508 33.5259 12.5418 32.1325 12.242L31.1667 3.66667H24.8523L23.8644 12.1818C22.2684 12.5217 20.8011 13.0706 19.4627 13.8285C18.1264 14.5843 16.7963 15.624 15.4727 16.9477L7.57502 13.6417L4.42735 19.025L11.2959 24.155C11.032 24.8643 10.8472 25.6349 10.7417 26.4667C10.6361 27.2984 10.5834 28.164 10.5834 29.0633C10.5834 29.8656 10.6361 30.6625 10.7417 31.4542C10.8472 32.2458 11.0119 33.0164 11.2357 33.7658L4.42735 38.975L7.57502 44.3583L15.4125 41.0333C16.656 42.2873 17.9458 43.2933 19.2822 44.0512C20.6206 44.8091 22.128 45.3991 23.8042 45.8213L24.8334 54.3333ZM27.9145 36.9167C30.1227 36.9167 31.9942 36.1493 33.529 34.6145C35.0638 33.0797 35.8312 31.2082 35.8312 29C35.8312 26.7918 35.0638 24.9203 33.529 23.3855C31.9942 21.8507 30.1227 21.0833 27.9145 21.0833C25.6936 21.0833 23.819 21.8507 22.2905 23.3855C20.7621 24.9203 19.9978 26.7918 19.9978 29C19.9978 31.2082 20.7621 33.0797 22.2905 34.6145C23.819 36.1493 25.6936 36.9167 27.9145 36.9167Z" fill="#096D9B"/>
</svg>
