<svg width="44" height="38" viewBox="0 0 44 38" fill="none" xmlns="http://www.w3.org/2000/svg">
<path d="M0.916992 37.25L22.0003 0.833374L43.0837 37.25H0.916992ZM22.0003 31.5C22.5434 31.5 22.9989 31.316 23.3669 30.948C23.7349 30.58 23.9183 30.1251 23.917 29.5834C23.9157 29.0416 23.7317 28.5867 23.365 28.2187C22.9983 27.8507 22.5434 27.6667 22.0003 27.6667C21.4573 27.6667 21.0024 27.8507 20.6357 28.2187C20.2689 28.5867 20.0849 29.0416 20.0837 29.5834C20.0824 30.1251 20.2664 30.5807 20.6357 30.95C21.0049 31.3192 21.4598 31.5026 22.0003 31.5ZM20.0837 25.75H23.917V16.1667H20.0837V25.75Z" fill="#AE9222"/>
</svg>
